<mxfile host="app.diagrams.net" modified="2023-08-25T16:48:41.991Z" agent="Mozilla/5.0 (Windows NT 10.0; Win64; x64) AppleWebKit/537.36 (KHTML, like Gecko) Chrome/116.0.0.0 Safari/537.36" etag="g5NGuSJBeen4eolSdgb-" version="21.6.9" type="device">
  <diagram name="Страница — 1" id="gMszheP36ETL8VkecmeO">
    <mxGraphModel dx="1434" dy="758" grid="1" gridSize="10" guides="1" tooltips="1" connect="1" arrows="1" fold="1" page="1" pageScale="1" pageWidth="827" pageHeight="1169" math="0" shadow="0">
      <root>
        <mxCell id="0" />
        <mxCell id="1" parent="0" />
        <mxCell id="cNpoH89kcfnXUtjrv3Tl-1" value="Продажа в интернет-магазине" style="shape=umlFrame;whiteSpace=wrap;html=1;pointerEvents=0;sketch=1;hachureGap=4;jiggle=2;curveFitting=1;fontFamily=Architects Daughter;fontSource=https%3A%2F%2Ffonts.googleapis.com%2Fcss%3Ffamily%3DArchitects%2BDaughter;fontSize=20;width=310;height=40;fillColor=#fff2cc;strokeColor=#d6b656;" vertex="1" parent="1">
          <mxGeometry x="90" y="80" width="1000" height="510" as="geometry" />
        </mxCell>
        <mxCell id="cNpoH89kcfnXUtjrv3Tl-3" value="State dia" style="html=1;whiteSpace=wrap;sketch=1;hachureGap=4;jiggle=2;curveFitting=1;fontFamily=Architects Daughter;fontSource=https%3A%2F%2Ffonts.googleapis.com%2Fcss%3Ffamily%3DArchitects%2BDaughter;fontSize=20;" vertex="1" parent="1">
          <mxGeometry x="359" y="10" width="110" height="50" as="geometry" />
        </mxCell>
        <mxCell id="cNpoH89kcfnXUtjrv3Tl-14" value="" style="edgeStyle=orthogonalEdgeStyle;rounded=0;sketch=1;hachureGap=4;jiggle=2;curveFitting=1;orthogonalLoop=1;jettySize=auto;html=1;fontFamily=Architects Daughter;fontSource=https%3A%2F%2Ffonts.googleapis.com%2Fcss%3Ffamily%3DArchitects%2BDaughter;fontSize=16;entryX=0;entryY=0.5;entryDx=0;entryDy=0;curved=1;" edge="1" parent="1" source="cNpoH89kcfnXUtjrv3Tl-6" target="cNpoH89kcfnXUtjrv3Tl-10">
          <mxGeometry relative="1" as="geometry">
            <mxPoint x="45" y="250" as="targetPoint" />
          </mxGeometry>
        </mxCell>
        <mxCell id="cNpoH89kcfnXUtjrv3Tl-6" value="" style="ellipse;html=1;shape=startState;fillColor=#000000;strokeColor=#ff0000;sketch=1;hachureGap=4;jiggle=2;curveFitting=1;fontFamily=Architects Daughter;fontSource=https%3A%2F%2Ffonts.googleapis.com%2Fcss%3Ffamily%3DArchitects%2BDaughter;fontSize=20;" vertex="1" parent="1">
          <mxGeometry x="30" y="330" width="30" height="30" as="geometry" />
        </mxCell>
        <mxCell id="cNpoH89kcfnXUtjrv3Tl-8" value="" style="ellipse;html=1;shape=endState;fillColor=#000000;strokeColor=#ff0000;sketch=1;hachureGap=4;jiggle=2;curveFitting=1;fontFamily=Architects Daughter;fontSource=https%3A%2F%2Ffonts.googleapis.com%2Fcss%3Ffamily%3DArchitects%2BDaughter;fontSize=20;" vertex="1" parent="1">
          <mxGeometry x="1130" y="315" width="30" height="30" as="geometry" />
        </mxCell>
        <mxCell id="cNpoH89kcfnXUtjrv3Tl-21" value="" style="edgeStyle=orthogonalEdgeStyle;rounded=0;sketch=1;hachureGap=4;jiggle=2;curveFitting=1;orthogonalLoop=1;jettySize=auto;html=1;fontFamily=Architects Daughter;fontSource=https%3A%2F%2Ffonts.googleapis.com%2Fcss%3Ffamily%3DArchitects%2BDaughter;fontSize=16;" edge="1" parent="1" source="cNpoH89kcfnXUtjrv3Tl-10" target="cNpoH89kcfnXUtjrv3Tl-20">
          <mxGeometry relative="1" as="geometry" />
        </mxCell>
        <mxCell id="cNpoH89kcfnXUtjrv3Tl-10" value="Заполнение&amp;nbsp;&lt;br&gt;заказа" style="ellipse;whiteSpace=wrap;html=1;sketch=1;hachureGap=4;jiggle=2;curveFitting=1;fontFamily=Architects Daughter;fontSource=https%3A%2F%2Ffonts.googleapis.com%2Fcss%3Ffamily%3DArchitects%2BDaughter;fontSize=20;" vertex="1" parent="1">
          <mxGeometry x="140" y="160" width="140" height="70" as="geometry" />
        </mxCell>
        <mxCell id="cNpoH89kcfnXUtjrv3Tl-26" value="" style="edgeStyle=orthogonalEdgeStyle;rounded=0;sketch=1;hachureGap=4;jiggle=2;curveFitting=1;orthogonalLoop=1;jettySize=auto;html=1;fontFamily=Architects Daughter;fontSource=https%3A%2F%2Ffonts.googleapis.com%2Fcss%3Ffamily%3DArchitects%2BDaughter;fontSize=16;" edge="1" parent="1" source="cNpoH89kcfnXUtjrv3Tl-11" target="cNpoH89kcfnXUtjrv3Tl-25">
          <mxGeometry relative="1" as="geometry" />
        </mxCell>
        <mxCell id="cNpoH89kcfnXUtjrv3Tl-11" value="Актуализация&lt;br&gt;запасов" style="ellipse;whiteSpace=wrap;html=1;sketch=1;hachureGap=4;jiggle=2;curveFitting=1;fontFamily=Architects Daughter;fontSource=https%3A%2F%2Ffonts.googleapis.com%2Fcss%3Ffamily%3DArchitects%2BDaughter;fontSize=20;" vertex="1" parent="1">
          <mxGeometry x="140" y="430" width="140" height="70" as="geometry" />
        </mxCell>
        <mxCell id="cNpoH89kcfnXUtjrv3Tl-12" value="Склад" style="text;align=center;fontStyle=1;verticalAlign=middle;spacingLeft=3;spacingRight=3;strokeColor=none;rotatable=0;points=[[0,0.5],[1,0.5]];portConstraint=eastwest;html=1;fontSize=20;fontFamily=Architects Daughter;" vertex="1" parent="1">
          <mxGeometry x="5" y="452" width="80" height="26" as="geometry" />
        </mxCell>
        <mxCell id="cNpoH89kcfnXUtjrv3Tl-13" value="Клиент" style="text;align=center;fontStyle=1;verticalAlign=middle;spacingLeft=3;spacingRight=3;strokeColor=none;rotatable=0;points=[[0,0.5],[1,0.5]];portConstraint=eastwest;html=1;fontSize=20;fontFamily=Architects Daughter;" vertex="1" parent="1">
          <mxGeometry y="182" width="80" height="26" as="geometry" />
        </mxCell>
        <mxCell id="cNpoH89kcfnXUtjrv3Tl-16" value="" style="edgeStyle=orthogonalEdgeStyle;rounded=0;sketch=1;hachureGap=4;jiggle=2;curveFitting=1;orthogonalLoop=1;jettySize=auto;html=1;fontFamily=Architects Daughter;fontSource=https%3A%2F%2Ffonts.googleapis.com%2Fcss%3Ffamily%3DArchitects%2BDaughter;fontSize=16;entryX=0;entryY=0.5;entryDx=0;entryDy=0;curved=1;exitX=1;exitY=0.5;exitDx=0;exitDy=0;" edge="1" parent="1" source="cNpoH89kcfnXUtjrv3Tl-6" target="cNpoH89kcfnXUtjrv3Tl-11">
          <mxGeometry relative="1" as="geometry">
            <mxPoint x="150" y="205" as="targetPoint" />
            <mxPoint x="70" y="355" as="sourcePoint" />
          </mxGeometry>
        </mxCell>
        <mxCell id="cNpoH89kcfnXUtjrv3Tl-36" value="" style="edgeStyle=orthogonalEdgeStyle;rounded=0;sketch=1;hachureGap=4;jiggle=2;curveFitting=1;orthogonalLoop=1;jettySize=auto;html=1;fontFamily=Architects Daughter;fontSource=https%3A%2F%2Ffonts.googleapis.com%2Fcss%3Ffamily%3DArchitects%2BDaughter;fontSize=16;" edge="1" parent="1" source="cNpoH89kcfnXUtjrv3Tl-20" target="cNpoH89kcfnXUtjrv3Tl-33">
          <mxGeometry relative="1" as="geometry" />
        </mxCell>
        <mxCell id="cNpoH89kcfnXUtjrv3Tl-20" value="" style="whiteSpace=wrap;html=1;fontSize=20;fontFamily=Architects Daughter;sketch=1;hachureGap=4;jiggle=2;curveFitting=1;fontSource=https%3A%2F%2Ffonts.googleapis.com%2Fcss%3Ffamily%3DArchitects%2BDaughter;" vertex="1" parent="1">
          <mxGeometry x="359" y="130" width="60" height="130" as="geometry" />
        </mxCell>
        <mxCell id="cNpoH89kcfnXUtjrv3Tl-35" value="" style="edgeStyle=orthogonalEdgeStyle;rounded=0;sketch=1;hachureGap=4;jiggle=2;curveFitting=1;orthogonalLoop=1;jettySize=auto;html=1;fontFamily=Architects Daughter;fontSource=https%3A%2F%2Ffonts.googleapis.com%2Fcss%3Ffamily%3DArchitects%2BDaughter;fontSize=16;" edge="1" parent="1" source="cNpoH89kcfnXUtjrv3Tl-25" target="cNpoH89kcfnXUtjrv3Tl-34">
          <mxGeometry relative="1" as="geometry" />
        </mxCell>
        <mxCell id="cNpoH89kcfnXUtjrv3Tl-25" value="" style="whiteSpace=wrap;html=1;fontSize=20;fontFamily=Architects Daughter;sketch=1;hachureGap=4;jiggle=2;curveFitting=1;fontSource=https%3A%2F%2Ffonts.googleapis.com%2Fcss%3Ffamily%3DArchitects%2BDaughter;" vertex="1" parent="1">
          <mxGeometry x="359" y="400" width="60" height="130" as="geometry" />
        </mxCell>
        <mxCell id="cNpoH89kcfnXUtjrv3Tl-28" value="" style="shape=link;html=1;rounded=0;sketch=1;hachureGap=4;jiggle=2;curveFitting=1;fontFamily=Architects Daughter;fontSource=https%3A%2F%2Ffonts.googleapis.com%2Fcss%3Ffamily%3DArchitects%2BDaughter;fontSize=16;width=-2;entryX=1.007;entryY=0.512;entryDx=0;entryDy=0;entryPerimeter=0;fillColor=#fff2cc;strokeColor=#d6b656;" edge="1" parent="1" target="cNpoH89kcfnXUtjrv3Tl-1">
          <mxGeometry width="100" relative="1" as="geometry">
            <mxPoint x="90" y="344" as="sourcePoint" />
            <mxPoint x="190" y="344" as="targetPoint" />
          </mxGeometry>
        </mxCell>
        <mxCell id="cNpoH89kcfnXUtjrv3Tl-29" value="" style="endArrow=classic;startArrow=classic;html=1;rounded=0;sketch=1;hachureGap=4;jiggle=2;curveFitting=1;fontFamily=Architects Daughter;fontSource=https%3A%2F%2Ffonts.googleapis.com%2Fcss%3Ffamily%3DArchitects%2BDaughter;fontSize=16;entryX=0.5;entryY=1;entryDx=0;entryDy=0;" edge="1" parent="1" source="cNpoH89kcfnXUtjrv3Tl-31" target="cNpoH89kcfnXUtjrv3Tl-20">
          <mxGeometry width="50" height="50" relative="1" as="geometry">
            <mxPoint x="389" y="340" as="sourcePoint" />
            <mxPoint x="380" y="280" as="targetPoint" />
          </mxGeometry>
        </mxCell>
        <mxCell id="cNpoH89kcfnXUtjrv3Tl-30" value="" style="endArrow=classic;startArrow=classic;html=1;rounded=0;sketch=1;hachureGap=4;jiggle=2;curveFitting=1;fontFamily=Architects Daughter;fontSource=https%3A%2F%2Ffonts.googleapis.com%2Fcss%3Ffamily%3DArchitects%2BDaughter;fontSize=16;entryX=0.5;entryY=1;entryDx=0;entryDy=0;" edge="1" parent="1" target="cNpoH89kcfnXUtjrv3Tl-31">
          <mxGeometry width="50" height="50" relative="1" as="geometry">
            <mxPoint x="388.5" y="400" as="sourcePoint" />
            <mxPoint x="389" y="340" as="targetPoint" />
          </mxGeometry>
        </mxCell>
        <mxCell id="cNpoH89kcfnXUtjrv3Tl-32" value="" style="endArrow=classic;startArrow=classic;html=1;rounded=0;sketch=1;hachureGap=4;jiggle=2;curveFitting=1;fontFamily=Architects Daughter;fontSource=https%3A%2F%2Ffonts.googleapis.com%2Fcss%3Ffamily%3DArchitects%2BDaughter;fontSize=16;entryX=0.5;entryY=1;entryDx=0;entryDy=0;" edge="1" parent="1" target="cNpoH89kcfnXUtjrv3Tl-31">
          <mxGeometry width="50" height="50" relative="1" as="geometry">
            <mxPoint x="389" y="340" as="sourcePoint" />
            <mxPoint x="389" y="260" as="targetPoint" />
          </mxGeometry>
        </mxCell>
        <mxCell id="cNpoH89kcfnXUtjrv3Tl-31" value="&lt;font style=&quot;font-size: 12px;&quot;&gt;*&lt;/font&gt;" style="ellipse;whiteSpace=wrap;html=1;sketch=1;hachureGap=4;jiggle=2;curveFitting=1;fontFamily=Architects Daughter;fontSource=https%3A%2F%2Ffonts.googleapis.com%2Fcss%3Ffamily%3DArchitects%2BDaughter;fontSize=20;" vertex="1" parent="1">
          <mxGeometry x="369" y="315" width="40" height="50" as="geometry" />
        </mxCell>
        <mxCell id="cNpoH89kcfnXUtjrv3Tl-33" value="Оплата&lt;br&gt;заказа" style="ellipse;whiteSpace=wrap;html=1;sketch=1;hachureGap=4;jiggle=2;curveFitting=1;fontFamily=Architects Daughter;fontSource=https%3A%2F%2Ffonts.googleapis.com%2Fcss%3Ffamily%3DArchitects%2BDaughter;fontSize=20;" vertex="1" parent="1">
          <mxGeometry x="500" y="160" width="140" height="70" as="geometry" />
        </mxCell>
        <mxCell id="cNpoH89kcfnXUtjrv3Tl-34" value="Сбор&lt;br&gt;заказа" style="ellipse;whiteSpace=wrap;html=1;sketch=1;hachureGap=4;jiggle=2;curveFitting=1;fontFamily=Architects Daughter;fontSource=https%3A%2F%2Ffonts.googleapis.com%2Fcss%3Ffamily%3DArchitects%2BDaughter;fontSize=20;" vertex="1" parent="1">
          <mxGeometry x="500" y="430" width="140" height="70" as="geometry" />
        </mxCell>
        <mxCell id="cNpoH89kcfnXUtjrv3Tl-38" value="* - sync" style="text;strokeColor=none;fillColor=none;align=left;verticalAlign=top;spacingLeft=4;spacingRight=4;overflow=hidden;rotatable=0;points=[[0,0.5],[1,0.5]];portConstraint=eastwest;whiteSpace=wrap;html=1;fontSize=20;fontFamily=Architects Daughter;" vertex="1" parent="1">
          <mxGeometry x="339" y="610" width="100" height="26" as="geometry" />
        </mxCell>
      </root>
    </mxGraphModel>
  </diagram>
</mxfile>
